<svg xmlns="http://www.w3.org/2000/svg" width="200" height="200" viewBox="0 0 200 200">
  <style>
    .st0{fill:#EEEEEE;}
    .st1{fill:#DDDDDD;}
    .st2{fill:#BBBBBB;}
    .st3{fill:#999999;}
  </style>
  <g>
    <path class="st0" d="M160,140c0,5.5-4.5,10-10,10H50c-5.5,0-10-4.5-10-10V60c0-5.5,4.5-10,10-10h100c5.5,0,10,4.5,10,10V140z"/>
    <path class="st1" d="M70,70h60c2.8,0,5,2.2,5,5v0c0,2.8-2.2,5-5,5H70c-2.8,0-5-2.2-5-5v0C65,72.2,67.2,70,70,70z"/>
    <path class="st1" d="M70,90h40c2.8,0,5,2.2,5,5v0c0,2.8-2.2,5-5,5H70c-2.8,0-5-2.2-5-5v0C65,92.2,67.2,90,70,90z"/>
    <path class="st1" d="M70,110h60c2.8,0,5,2.2,5,5v0c0,2.8-2.2,5-5,5H70c-2.8,0-5-2.2-5-5v0C65,112.2,67.2,110,70,110z"/>
  </g>
  <g>
    <line class="st2" x1="40" y1="40" x2="100" y2="100" style="stroke:#999999;stroke-width:2"/>
    <line class="st2" x1="100" y1="100" x2="160" y2="40" style="stroke:#999999;stroke-width:2"/>
    <line class="st2" x1="100" y1="100" x2="100" y2="160" style="stroke:#999999;stroke-width:2"/>
    <circle class="st3" cx="40" cy="40" r="5"/>
    <circle class="st3" cx="160" cy="40" r="5"/>
    <circle class="st3" cx="100" cy="100" r="8"/>
    <circle class="st3" cx="100" cy="160" r="5"/>
  </g>
</svg>